<?xml version="1.0" encoding="UTF-8" standalone="no"?>
<svg width="92px" height="45px" viewBox="0 0 92 45" version="1.1" xmlns="http://www.w3.org/2000/svg" xmlns:xlink="http://www.w3.org/1999/xlink" xmlns:sketch="http://www.bohemiancoding.com/sketch/ns">
    <!-- Generator: Sketch 3.3.2 (12043) - http://www.bohemiancoding.com/sketch -->
    <title>Group</title>
    <desc>Created with Sketch.</desc>
    <defs></defs>
    <g stroke="none" fill-rule="evenodd">
        <path d="M81.138,16.372 C77.341,16.497 74.604,12.323 73.614,10.693 C74.584,9.159 74.759,8.81 76.448,7.121 C78.137,5.433 79.806,5.064 81.107,5.064 C84.057,5.064 86.778,7.412 86.778,10.732 C86.778,12.964 84.698,16.372 81.138,16.372 M59.988,16.34 C56.226,16.34 54.342,13.401 54.342,10.56 C54.342,7.718 56.746,5.013 60.312,5.013 C64.507,5.013 67.766,10.706 67.766,10.706 C67.766,10.706 64.833,16.34 59.988,16.34 M80.556,0.202 C77.278,0.202 73.783,2.477 70.668,6.541 C70.668,6.541 66.496,0.161 59.927,0.161 C56.364,0.148 49.592,3.236 49.592,10.55 C49.592,16.185 53.628,21.197 60.048,21.197 C62.568,21.197 65.006,20.194 66.794,18.839 C68.582,17.485 70.695,14.857 70.695,14.857 C70.695,14.857 72.347,17.268 75.137,19.381 C77.928,21.494 82.289,21.467 85.161,20.221 C88.032,18.975 91.5,16.131 91.5,10.279 C91.5,5.078 86.759,0.202 80.556,0.202" id="Fill-1" sketch:type="MSShapeGroup"></path>
        <path d="M6.195,3.068 C7.837,3.068 8.752,3.463 9.458,4.086 C10.269,4.793 10.81,5.833 10.81,7.017 C10.81,7.974 10.352,8.951 9.874,9.45 C11.163,10.094 12.057,11.549 12.057,13.171 C12.057,14.397 11.537,15.52 10.727,16.31 C9.916,17.121 8.793,17.62 6.922,17.62 L1.247,17.62 L1.247,3.068 L6.195,3.068 L6.195,3.068 Z M4.054,8.681 L6.028,8.681 C6.901,8.681 7.296,8.473 7.587,8.161 C7.837,7.891 8.003,7.516 8.003,7.122 C8.003,6.726 7.837,6.352 7.587,6.082 C7.296,5.77 6.901,5.562 6.028,5.562 L4.054,5.562 L4.054,8.681 L4.054,8.681 Z M6.86,15.125 C7.837,15.125 8.377,14.876 8.731,14.481 C9.064,14.127 9.251,13.67 9.251,13.15 C9.251,12.631 9.064,12.173 8.731,11.82 C8.377,11.425 7.837,11.175 6.86,11.175 L4.054,11.175 L4.054,15.125 L6.86,15.125 L6.86,15.125 Z" id="Fill-2" sketch:type="MSShapeGroup"></path>
        <path d="M23.032,16.019 C22.055,17.183 20.454,17.828 18.895,17.828 C15.881,17.828 13.615,15.749 13.615,12.589 C13.615,9.783 15.527,7.329 18.521,7.329 C21.307,7.329 23.281,9.678 23.281,12.485 C23.281,12.755 23.261,13.026 23.219,13.254 L16.234,13.254 C16.38,14.668 17.523,15.645 18.958,15.645 C20.101,15.645 21.015,15 21.494,14.481 L23.032,16.019 L23.032,16.019 Z M20.516,11.279 C20.433,10.385 19.623,9.512 18.521,9.512 C17.398,9.512 16.483,10.365 16.359,11.279 L20.516,11.279 L20.516,11.279 Z" id="Fill-3" sketch:type="MSShapeGroup"></path>
        <path d="M25.982,14.543 C26.668,15.167 27.728,15.541 28.747,15.541 C29.475,15.541 30.036,15.187 30.036,14.688 C30.036,13.171 25.151,13.712 25.151,10.468 C25.151,8.535 27.022,7.329 29.017,7.329 C30.327,7.329 31.762,7.828 32.426,8.348 L31.159,10.302 C30.639,9.928 29.953,9.616 29.225,9.616 C28.477,9.616 27.853,9.907 27.853,10.427 C27.853,11.737 32.739,11.217 32.739,14.709 C32.739,16.643 30.847,17.828 28.726,17.828 C27.334,17.828 25.857,17.349 24.673,16.476 L25.982,14.543" id="Fill-4" sketch:type="MSShapeGroup"></path>
        <path d="M42.404,17.62 C42.051,17.744 41.24,17.828 40.721,17.828 C39.099,17.828 37.914,17.287 37.228,16.372 C36.708,15.686 36.48,14.792 36.48,13.358 L36.48,9.824 L33.673,9.824 L33.673,7.537 L36.48,7.537 L36.48,4.731 L39.182,4.731 L39.182,7.537 L42.508,7.537 L42.508,9.824 L39.182,9.824 L39.182,13.67 C39.182,14.294 39.286,14.668 39.515,14.938 C39.785,15.25 40.222,15.437 40.887,15.437 C41.282,15.437 41.801,15.374 41.989,15.333 L42.404,17.62" id="Fill-5" sketch:type="MSShapeGroup"></path>
        <path d="M2.494,23.926 C3.471,23.926 4.261,24.675 4.261,25.652 C4.261,26.629 3.471,27.377 2.494,27.377 C1.517,27.377 0.727,26.629 0.727,25.652 C0.727,24.675 1.517,23.926 2.494,23.926 L2.494,23.926 Z M1.143,29.227 L3.846,29.227 L3.846,39.309 L1.143,39.309 L1.143,29.227 Z" id="Fill-6" sketch:type="MSShapeGroup"></path>
        <path d="M6.963,39.31 L6.963,29.227 L9.562,29.227 L9.562,30.038 C10.331,29.414 11.287,29.02 12.41,29.02 C13.803,29.02 15.071,29.643 15.902,30.641 C16.567,31.431 16.942,32.45 16.942,34.175 L16.942,39.31 L14.239,39.31 L14.239,33.967 C14.239,32.969 14.01,32.45 13.636,32.075 C13.283,31.722 12.742,31.514 12.119,31.514 C10.975,31.514 10.04,32.242 9.666,32.761 L9.666,39.31 L6.963,39.31" id="Fill-7" sketch:type="MSShapeGroup"></path>
        <path d="M30.14,24.758 C32.448,24.758 33.965,25.257 35.15,26.13 C36.938,27.46 38.04,29.622 38.04,32.034 C38.04,34.445 36.938,36.607 35.15,37.938 C33.965,38.811 32.448,39.31 30.14,39.31 L25.567,39.31 L25.567,24.758 L30.14,24.758 L30.14,24.758 Z M34.173,28.874 C33.363,27.855 32.178,27.252 30.452,27.252 L28.373,27.252 L28.373,36.815 L30.452,36.815 C32.178,36.815 33.363,36.212 34.173,35.194 C34.838,34.362 35.233,33.24 35.233,32.034 C35.233,30.828 34.838,29.705 34.173,28.874 L34.173,28.874 Z" id="Fill-8" sketch:type="MSShapeGroup"></path>
        <path d="M49.222,37.709 C48.245,38.873 46.644,39.518 45.085,39.518 C42.071,39.518 39.805,37.439 39.805,34.279 C39.805,31.473 41.717,29.02 44.711,29.02 C47.497,29.02 49.471,31.368 49.471,34.175 C49.471,34.445 49.451,34.716 49.409,34.944 L42.424,34.944 C42.57,36.358 43.713,37.335 45.147,37.335 C46.291,37.335 47.206,36.69 47.684,36.171 L49.222,37.709 L49.222,37.709 Z M46.706,32.969 C46.623,32.075 45.813,31.202 44.711,31.202 C43.588,31.202 42.674,32.055 42.549,32.969 L46.706,32.969 L46.706,32.969 Z" id="Fill-9" sketch:type="MSShapeGroup"></path>
        <path d="M52.172,36.233 C52.858,36.857 53.918,37.231 54.937,37.231 C55.665,37.231 56.226,36.877 56.226,36.379 C56.226,34.861 51.341,35.402 51.341,32.159 C51.341,30.225 53.212,29.02 55.208,29.02 C56.517,29.02 57.952,29.518 58.617,30.038 L57.349,31.992 C56.829,31.618 56.143,31.306 55.415,31.306 C54.667,31.306 54.043,31.597 54.043,32.117 C54.043,33.427 58.929,32.907 58.929,36.399 C58.929,38.333 57.037,39.518 54.917,39.518 C53.524,39.518 52.048,39.039 50.863,38.166 L52.172,36.233" id="Fill-10" sketch:type="MSShapeGroup"></path>
        <path d="M62.773,23.926 C63.75,23.926 64.54,24.675 64.54,25.652 C64.54,26.629 63.75,27.377 62.773,27.377 C61.796,27.377 61.006,26.629 61.006,25.652 C61.006,24.675 61.796,23.926 62.773,23.926 L62.773,23.926 Z M61.422,29.227 L64.125,29.227 L64.125,39.309 L61.422,39.309 L61.422,29.227 Z" id="Fill-11" sketch:type="MSShapeGroup"></path>
        <path d="M76.909,38.749 C76.909,40.557 76.597,41.638 75.994,42.49 C75.08,43.759 73.458,44.507 71.524,44.507 C69.55,44.507 67.679,43.592 66.681,42.428 L68.385,40.661 C68.926,41.243 69.862,42.116 71.524,42.116 C72.398,42.116 73.125,41.846 73.583,41.305 C73.998,40.848 74.206,40.225 74.206,38.936 L74.206,38.603 C73.395,39.227 72.522,39.518 71.504,39.518 C70.007,39.518 68.573,38.852 67.679,37.813 C66.889,36.898 66.411,35.651 66.411,34.279 C66.411,31.306 68.614,29.02 71.359,29.02 C72.502,29.02 73.52,29.394 74.31,30.038 L74.31,29.227 L76.909,29.227 L76.909,38.749 L76.909,38.749 Z M74.206,32.761 C73.645,32.013 72.751,31.514 71.712,31.514 C70.132,31.514 69.113,32.824 69.113,34.279 C69.113,35.859 70.257,37.023 71.774,37.023 C72.793,37.023 73.687,36.524 74.206,35.776 L74.206,32.761 L74.206,32.761 Z" id="Fill-12" sketch:type="MSShapeGroup"></path>
        <path d="M80.025,39.31 L80.025,29.227 L82.624,29.227 L82.624,30.038 C83.393,29.414 84.35,29.02 85.472,29.02 C86.865,29.02 88.133,29.643 88.965,30.641 C89.63,31.431 90.004,32.45 90.004,34.175 L90.004,39.31 L87.302,39.31 L87.302,33.967 C87.302,32.969 87.073,32.45 86.699,32.075 C86.345,31.722 85.805,31.514 85.181,31.514 C84.038,31.514 83.102,32.242 82.728,32.761 L82.728,39.31 L80.025,39.31" id="Fill-13" sketch:type="MSShapeGroup"></path>
    </g>
</svg>
