<?xml version="1.0" encoding="UTF-8" standalone="no"?>
<svg width="117px" height="78px" viewBox="0 0 117 78" version="1.1" xmlns="http://www.w3.org/2000/svg" xmlns:xlink="http://www.w3.org/1999/xlink" xmlns:sketch="http://www.bohemiancoding.com/sketch/ns">
    <!-- Generator: Sketch 3.3.2 (12043) - http://www.bohemiancoding.com/sketch -->
    <title>Imported Layers</title>
    <desc>Created with Sketch.</desc>
    <defs></defs>
    <g id="Page-1" stroke="none" stroke-width="1" fill="none" fill-rule="evenodd" sketch:type="MSPage">
        <g id="Imported-Layers" sketch:type="MSLayerGroup" transform="translate(-1.000000, 0.000000)" fill="#000000">
            <path d="M1.837,70.563 L67.507,70.563 L67.507,71.718 L1.837,71.718 L1.837,70.563 Z" id="Fill-1" sketch:type="MSShapeGroup"></path>
            <path d="M103.796,21.129 C98.941,21.288 95.443,15.952 94.177,13.868 C95.417,11.907 95.641,11.46 97.8,9.301 C99.96,7.142 102.094,6.671 103.756,6.671 C107.528,6.671 111.008,9.674 111.008,13.917 C111.008,16.771 108.347,21.129 103.796,21.129 M76.755,21.088 C71.945,21.088 69.537,17.33 69.537,13.697 C69.537,10.064 72.61,6.605 77.169,6.605 C82.534,6.605 86.7,13.884 86.7,13.884 C86.7,13.884 82.949,21.088 76.755,21.088 M103.051,0.454 C98.861,0.454 94.393,3.363 90.409,8.559 C90.409,8.559 85.075,0.402 76.676,0.402 C72.122,0.385 63.463,4.333 63.463,13.685 C63.463,20.889 68.624,27.297 76.832,27.297 C80.054,27.297 83.171,26.015 85.457,24.284 C87.743,22.552 90.444,19.192 90.444,19.192 C90.444,19.192 92.557,22.275 96.124,24.976 C99.692,27.677 105.268,27.643 108.94,26.049 C112.611,24.457 117.045,20.82 117.045,13.339 C117.045,6.689 110.983,0.454 103.051,0.454" id="Fill-2" sketch:type="MSShapeGroup"></path>
            <path d="M7.979,4.118 C10.078,4.118 11.247,4.624 12.151,5.421 C13.187,6.324 13.879,7.654 13.879,9.168 C13.879,10.391 13.294,11.64 12.683,12.278 C14.331,13.102 15.473,14.962 15.473,17.036 C15.473,18.604 14.809,20.039 13.772,21.05 C12.735,22.086 11.301,22.724 8.908,22.724 L1.652,22.724 L1.652,4.118 L7.979,4.118 L7.979,4.118 Z M5.241,11.295 L7.765,11.295 C8.882,11.295 9.387,11.029 9.758,10.63 C10.078,10.285 10.29,9.806 10.29,9.301 C10.29,8.796 10.078,8.318 9.758,7.972 C9.387,7.574 8.882,7.308 7.765,7.308 L5.241,7.308 L5.241,11.295 L5.241,11.295 Z M8.828,19.534 C10.078,19.534 10.769,19.215 11.22,18.711 C11.646,18.259 11.885,17.674 11.885,17.01 C11.885,16.345 11.646,15.76 11.22,15.308 C10.769,14.804 10.078,14.484 8.828,14.484 L5.241,14.484 L5.241,19.534 L8.828,19.534 L8.828,19.534 Z" id="Fill-3" sketch:type="MSShapeGroup"></path>
            <path d="M29.505,20.677 C28.256,22.166 26.209,22.989 24.216,22.989 C20.362,22.989 17.465,20.332 17.465,16.292 C17.465,12.704 19.91,9.567 23.738,9.567 C27.299,9.567 29.824,12.57 29.824,16.159 C29.824,16.505 29.798,16.85 29.745,17.142 L20.814,17.142 C21,18.95 22.462,20.199 24.296,20.199 C25.758,20.199 26.927,19.375 27.539,18.711 L29.505,20.677 L29.505,20.677 Z M26.289,14.618 C26.183,13.474 25.147,12.358 23.738,12.358 C22.302,12.358 21.133,13.448 20.973,14.618 L26.289,14.618 L26.289,14.618 Z" id="Fill-4" sketch:type="MSShapeGroup"></path>
            <path d="M33.277,18.79 C34.154,19.588 35.51,20.066 36.812,20.066 C37.742,20.066 38.46,19.614 38.46,18.976 C38.46,17.036 32.214,17.727 32.214,13.581 C32.214,11.108 34.606,9.567 37.158,9.567 C38.832,9.567 40.666,10.205 41.516,10.869 L39.895,13.368 C39.231,12.889 38.354,12.491 37.424,12.491 C36.467,12.491 35.669,12.863 35.669,13.528 C35.669,15.202 41.915,14.538 41.915,19.003 C41.915,21.475 39.497,22.989 36.786,22.989 C35.005,22.989 33.118,22.379 31.603,21.262 L33.277,18.79" id="Fill-5" sketch:type="MSShapeGroup"></path>
            <path d="M54.274,22.724 C53.822,22.883 52.785,22.989 52.121,22.989 C50.047,22.989 48.533,22.298 47.655,21.129 C46.991,20.252 46.699,19.109 46.699,17.275 L46.699,12.757 L43.11,12.757 L43.11,9.833 L46.699,9.833 L46.699,6.245 L50.153,6.245 L50.153,9.833 L54.406,9.833 L54.406,12.757 L50.153,12.757 L50.153,17.674 C50.153,18.472 50.287,18.95 50.579,19.295 C50.925,19.694 51.483,19.933 52.333,19.933 C52.838,19.933 53.503,19.853 53.742,19.8 L54.274,22.724" id="Fill-6" sketch:type="MSShapeGroup"></path>
            <path d="M3.247,30.787 C4.496,30.787 5.506,31.744 5.506,32.993 C5.506,34.242 4.496,35.199 3.247,35.199 C1.997,35.199 0.988,34.242 0.988,32.993 C0.988,31.744 1.997,30.787 3.247,30.787 L3.247,30.787 Z M1.519,37.565 L4.974,37.565 L4.974,50.456 L1.519,50.456 L1.519,37.565 Z" id="Fill-7" sketch:type="MSShapeGroup"></path>
            <path d="M8.96,50.456 L8.96,37.565 L12.283,37.565 L12.283,38.601 C13.267,37.804 14.489,37.299 15.924,37.299 C17.705,37.299 19.327,38.096 20.39,39.372 C21.24,40.382 21.719,41.685 21.719,43.891 L21.719,50.456 L18.263,50.456 L18.263,43.625 C18.263,42.349 17.971,41.685 17.492,41.206 C17.041,40.754 16.35,40.488 15.552,40.488 C14.091,40.488 12.894,41.419 12.416,42.083 L12.416,50.456 L8.96,50.456" id="Fill-8" sketch:type="MSShapeGroup"></path>
            <path d="M38.594,31.85 C41.544,31.85 43.484,32.488 44.999,33.604 C47.285,35.305 48.694,38.07 48.694,41.153 C48.694,44.236 47.285,47.001 44.999,48.701 C43.484,49.818 41.544,50.456 38.594,50.456 L32.746,50.456 L32.746,31.85 L38.594,31.85 L38.594,31.85 Z M43.75,37.113 C42.713,35.81 41.198,35.04 38.992,35.04 L36.334,35.04 L36.334,47.266 L38.992,47.266 C41.198,47.266 42.713,46.495 43.75,45.193 C44.601,44.13 45.105,42.695 45.105,41.153 C45.105,39.612 44.601,38.176 43.75,37.113 L43.75,37.113 Z" id="Fill-9" sketch:type="MSShapeGroup"></path>
            <path d="M62.991,48.409 C61.741,49.897 59.695,50.722 57.701,50.722 C53.848,50.722 50.95,48.064 50.95,44.024 C50.95,40.435 53.395,37.299 57.223,37.299 C60.785,37.299 63.309,40.303 63.309,43.891 C63.309,44.236 63.283,44.582 63.23,44.874 L54.299,44.874 C54.485,46.681 55.947,47.931 57.781,47.931 C59.243,47.931 60.413,47.107 61.024,46.442 L62.991,48.409 L62.991,48.409 Z M59.774,42.349 C59.668,41.206 58.632,40.09 57.223,40.09 C55.787,40.09 54.618,41.179 54.459,42.349 L59.774,42.349 L59.774,42.349 Z" id="Fill-10" sketch:type="MSShapeGroup"></path>
            <path d="M66.763,46.522 C67.64,47.319 68.995,47.797 70.298,47.797 C71.228,47.797 71.945,47.346 71.945,46.708 C71.945,44.768 65.699,45.459 65.699,41.313 C65.699,38.841 68.092,37.299 70.643,37.299 C72.317,37.299 74.151,37.937 75.002,38.601 L73.381,41.1 C72.716,40.621 71.839,40.223 70.909,40.223 C69.952,40.223 69.155,40.595 69.155,41.259 C69.155,42.934 75.401,42.269 75.401,46.734 C75.401,49.207 72.982,50.722 70.271,50.722 C68.49,50.722 66.603,50.11 65.088,48.994 L66.763,46.522" id="Fill-11" sketch:type="MSShapeGroup"></path>
            <path d="M80.316,30.787 C81.565,30.787 82.575,31.744 82.575,32.993 C82.575,34.242 81.565,35.199 80.316,35.199 C79.067,35.199 78.057,34.242 78.057,32.993 C78.057,31.744 79.067,30.787 80.316,30.787 L80.316,30.787 Z M78.588,37.565 L82.044,37.565 L82.044,50.456 L78.588,50.456 L78.588,37.565 Z" id="Fill-12" sketch:type="MSShapeGroup"></path>
            <path d="M98.389,49.738 C98.389,52.05 97.991,53.432 97.22,54.522 C96.05,56.144 93.977,57.101 91.505,57.101 C88.98,57.101 86.588,55.931 85.312,54.442 L87.492,52.183 C88.183,52.927 89.379,54.044 91.505,54.044 C92.621,54.044 93.552,53.699 94.137,53.008 C94.668,52.423 94.934,51.625 94.934,49.977 L94.934,49.552 C93.897,50.349 92.781,50.722 91.478,50.722 C89.565,50.722 87.731,49.871 86.588,48.542 C85.578,47.373 84.967,45.778 84.967,44.024 C84.967,40.223 87.784,37.299 91.293,37.299 C92.754,37.299 94.057,37.778 95.067,38.601 L95.067,37.565 L98.389,37.565 L98.389,49.738 L98.389,49.738 Z M94.934,42.083 C94.216,41.126 93.073,40.488 91.745,40.488 C89.724,40.488 88.422,42.163 88.422,44.024 C88.422,46.044 89.884,47.532 91.824,47.532 C93.126,47.532 94.269,46.894 94.934,45.937 L94.934,42.083 L94.934,42.083 Z" id="Fill-13" sketch:type="MSShapeGroup"></path>
            <path d="M102.374,50.456 L102.374,37.565 L105.697,37.565 L105.697,38.601 C106.68,37.804 107.903,37.299 109.338,37.299 C111.119,37.299 112.74,38.096 113.803,39.372 C114.653,40.382 115.132,41.685 115.132,43.891 L115.132,50.456 L111.676,50.456 L111.676,43.625 C111.676,42.349 111.385,41.685 110.906,41.206 C110.454,40.754 109.763,40.488 108.966,40.488 C107.504,40.488 106.308,41.419 105.829,42.083 L105.829,50.456 L102.374,50.456" id="Fill-14" sketch:type="MSShapeGroup"></path>
            <path d="M74.939,66.829 C75.528,64.943 77.257,63.647 79.28,63.647 C81.637,63.647 83.679,65.415 83.679,67.89 C83.679,69.559 82.834,70.777 81.911,71.838 L78.985,75.236 L83.777,75.236 L83.777,77.593 L74.841,77.593 L74.841,76.021 L79.672,70.541 C80.733,69.343 81.028,68.557 81.028,67.85 C81.028,66.888 80.281,66.004 79.24,66.004 C78.317,66.004 77.649,66.632 77.374,67.556 L74.939,66.829" id="Fill-15" sketch:type="MSShapeGroup"></path>
            <path d="M91.046,63.647 C94.562,63.647 95.858,66.81 95.858,70.718 C95.858,74.627 94.562,77.789 91.046,77.789 C87.53,77.789 86.234,74.627 86.234,70.718 C86.234,66.81 87.53,63.647 91.046,63.647 L91.046,63.647 Z M91.046,66.004 C89.455,66.004 88.886,68.125 88.886,70.718 C88.886,73.311 89.455,75.432 91.046,75.432 C92.637,75.432 93.206,73.311 93.206,70.718 C93.206,68.125 92.637,66.004 91.046,66.004 L91.046,66.004 Z" id="Fill-16" sketch:type="MSShapeGroup"></path>
            <path d="M98.413,65.808 L101.752,63.843 L103.618,63.843 L103.618,77.593 L100.966,77.593 L100.966,66.907 L98.413,68.322 L98.413,65.808" id="Fill-17" sketch:type="MSShapeGroup"></path>
            <path d="M107.055,63.843 L116.091,63.843 L116.091,65.415 L110.179,77.593 L107.37,77.593 L112.928,66.201 L107.055,66.201 L107.055,63.843" id="Fill-18" sketch:type="MSShapeGroup"></path>
        </g>
    </g>
</svg>