<?xml version="1.0" encoding="UTF-8" standalone="no"?>
<svg width="108px" height="96px" viewBox="0 0 108 96" version="1.1" xmlns="http://www.w3.org/2000/svg" xmlns:xlink="http://www.w3.org/1999/xlink" >
    <path d="M63.066,21.805 L63.066,24.405 L47.59,24.405 L47.59,24.03 L59.095,2.972 L48.411,2.972 L48.411,0.439 L63.031,0.439 L63.031,0.883 L51.493,21.805 L63.066,21.805"></path>
    <path d="M78.987,24.405 L66.9,24.405 L66.9,0.439 L69.606,0.439 L69.606,21.838 L78.987,21.838 L78.987,24.405"></path>
    <path d="M82.905,0.439 L85.644,0.439 L85.644,24.406 L82.905,24.406 L82.905,0.439 Z"></path>
    <path d="M7.473,35.758 C13.43,35.758 17.402,40.552 17.402,47.708 C17.402,54.934 13.43,59.726 7.473,59.726 L0.214,59.726 L0.214,35.758 L7.473,35.758 L7.473,35.758 Z M7.404,57.124 C11.787,57.124 14.698,53.357 14.698,47.742 C14.698,42.128 11.787,38.396 7.439,38.396 L2.918,38.396 L2.918,57.124 L7.404,57.124 L7.404,57.124 Z"></path>
    <path d="M24.387,46.1 L33.323,46.1 L33.323,48.598 L24.387,48.598 L24.387,57.089 L33.974,57.089 L33.974,59.726 L21.682,59.726 L21.682,35.758 L33.699,35.758 L33.699,38.258 L24.387,38.258 L24.387,46.1"></path>
    <path d="M39.589,53.186 C39.726,56.403 42.704,57.568 45.101,57.568 C48.286,57.568 50.408,55.856 50.408,53.186 C50.408,50.002 47.43,49.112 44.759,48.667 C41.061,48.221 37.329,46.818 37.329,42.366 C37.329,38.291 40.343,35.416 44.828,35.416 C48.423,35.416 52.292,37.265 52.429,41.922 L49.895,41.922 C49.69,38.875 47.087,37.984 44.828,37.984 C41.712,37.984 40.035,39.731 40.035,42.092 C40.035,45.311 42.773,45.962 45.239,46.338 C49.278,46.887 53.079,48.563 53.079,53.186 C53.079,57.228 49.895,60.069 45.136,60.069 C41.301,60.069 37.089,58.116 36.953,53.186 L39.589,53.186"></path>
    <path d="M55.612,59.726 L55.612,57.431 L59.036,57.431 L59.036,38.02 L55.852,38.02 L55.852,35.758 L64.96,35.758 L64.96,38.02 L61.776,38.02 L61.776,57.431 L65.199,57.431 L65.199,59.726 L55.612,59.726"></path>
    <path d="M77.731,35.416 C82.045,35.416 85.605,37.471 86.804,42.468 L84.203,42.468 C83.107,39.01 80.676,38.02 77.731,38.02 C73.245,38.02 70.267,41.889 70.267,47.708 C70.267,53.528 73.245,57.397 77.731,57.397 C81.702,57.397 84.407,55.07 84.99,49.556 L78.005,49.556 L78.005,47.126 L87.523,47.126 C87.763,54.898 83.859,60.069 77.731,60.069 C71.602,60.069 67.527,55.139 67.527,47.708 C67.527,40.347 71.602,35.416 77.731,35.416"></path>
    <path d="M31.841,81.418 L40.778,81.418 L40.778,83.919 L31.841,83.919 L31.841,92.41 L41.428,92.41 L41.428,95.047 L29.136,95.047 L29.136,71.079 L41.153,71.079 L41.153,73.577 L31.841,73.577 L31.841,81.418"></path>
    <path d="M48.584,81.418 L57.52,81.418 L57.52,83.919 L48.584,83.919 L48.584,92.41 L58.17,92.41 L58.17,95.047 L45.878,95.047 L45.878,71.079 L57.896,71.079 L57.896,73.577 L48.584,73.577 L48.584,81.418"></path>
    <path d="M71.877,82.673 L78.045,71.454 L78.045,71.079 L75.165,71.079 L69.68,81.407 C69.673,81.41 69.666,81.414 69.66,81.418 L65.328,81.418 L65.326,71.079 L62.621,71.079 L62.621,95.047 L65.326,95.047 L65.326,83.919 L69.667,83.919 L75.94,95.047 L78.953,95.047 L78.953,94.636 L71.877,82.673"></path>
    <path d="M6.377,0.439 L6.377,2.734 L2.953,2.734 L2.953,22.146 L6.377,22.146 L6.377,24.405 L0.214,24.405 L0.214,0.439 L6.377,0.439"></path>
    <path d="M101.731,95.047 L101.731,92.751 L105.156,92.751 L105.156,73.339 L101.731,73.339 L101.731,71.079 L107.895,71.079 L107.895,95.047 L101.731,95.047"></path>
    <path d="M106.762,24.405 L107.894,24.405 L107.894,0.439 L105.224,0.439 L105.224,11.635 L105.43,18.484 L92.637,0.439 L91.46,0.439 L91.46,24.405 L94.131,24.405 L94.131,12.868 L93.925,6.327 L106.762,24.405"></path>
    <path d="M106.762,59.758 L107.894,59.758 L107.894,35.79 L105.224,35.79 L105.224,46.985 L105.43,53.834 L92.637,35.79 L91.46,35.79 L91.46,59.758 L94.131,59.758 L94.131,48.219 L93.925,41.678 L106.762,59.758"></path>
    <path d="M24.339,71.079 L13.978,90.081 L14.212,82.275 L14.212,71.079 L13.012,71.079 L2.652,90.081 L2.885,82.275 L2.885,71.079 L0.214,71.079 L0.214,95.047 L2.921,95.047 L11.541,78.863 L11.541,95.047 L14.247,95.047 L26.97,71.523 L26.97,71.079 L24.339,71.079"></path>
</svg>
