<?xml version="1.0" encoding="UTF-8" standalone="no"?>
<svg viewBox="0 0 325 159" version="1.1" xmlns="http://www.w3.org/2000/svg" xmlns:xlink="http://www.w3.org/1999/xlink">
    <path d="M279.685,70.43 C263.263,70.968 251.427,52.918 247.145,45.867 C251.342,39.234 252.098,37.724 259.4,30.419 C266.705,23.116 273.926,21.52 279.55,21.52 C292.31,21.52 304.079,31.679 304.079,46.035 C304.079,55.689 295.08,70.43 279.685,70.43 M188.212,70.292 C171.941,70.292 163.795,57.58 163.795,45.29 C163.795,32.999 174.189,21.299 189.613,21.299 C207.759,21.299 221.852,45.922 221.852,45.922 C221.852,45.922 209.164,70.292 188.212,70.292 M277.167,0.492 C262.989,0.492 247.875,10.335 234.4,27.909 C234.4,27.909 216.357,0.316 187.945,0.316 C172.538,0.259 143.248,13.615 143.248,45.249 C143.248,69.619 160.704,91.295 188.473,91.295 C199.369,91.295 209.915,86.958 217.647,81.1 C225.379,75.243 234.518,63.878 234.518,63.878 C234.518,63.878 241.666,74.306 253.732,83.444 C265.801,92.582 284.663,92.467 297.084,87.076 C309.503,81.687 324.501,69.386 324.501,44.077 C324.501,21.582 303.996,0.492 277.167,0.492"></path>
    <path d="M265.195,158.346 L273.829,158.346 L273.829,129.187 L298.769,158.346 L304.843,158.346 L304.843,113.583 L296.211,113.583 L296.211,142.741 L271.272,113.583 L265.195,113.583 L265.195,158.346 L265.195,158.346 Z M236.611,120.618 C241.024,120.618 244.798,122.536 247.483,125.222 L253.048,119.338 C249.02,115.439 243.328,112.943 236.677,112.943 C222.737,112.943 213.08,123.11 213.08,135.963 C213.08,148.817 222.864,158.984 236.805,158.984 C244.99,158.984 251.641,155.469 255.605,150.416 L255.605,130.529 L235.462,130.529 L235.462,138.202 L246.972,138.202 L246.972,147.859 C244.414,149.904 241.089,151.312 236.996,151.312 C228.364,151.312 221.713,144.662 221.713,135.963 C221.713,127.459 228.107,120.618 236.611,120.618 L236.611,120.618 Z M196.773,158.346 L205.407,158.346 L205.407,113.583 L196.773,113.583 L196.773,158.346 Z M157.447,152.272 C162.051,156.49 167.615,158.984 173.626,158.984 C181.683,158.984 188.783,153.485 188.783,145.558 C188.783,130.464 168.128,132.703 168.128,125.477 C168.128,122.023 171.772,120.618 175.034,120.618 C177.976,120.618 180.979,121.896 182.771,123.56 L187.247,117.164 C183.026,114.03 178.807,112.943 174.265,112.943 C166.847,112.943 159.493,117.546 159.493,125.542 C159.493,130.592 162.308,133.661 165.826,135.71 C171.835,139.226 180.148,139.928 180.148,145.684 C180.148,148.946 177.464,151.312 173.626,151.312 C169.533,151.312 165.633,149.201 163.075,146.389 L157.447,152.272 L157.447,152.272 Z M152.012,121.256 L152.012,113.583 L125.155,113.583 L125.155,158.346 L152.652,158.346 L152.652,150.673 L133.789,150.673 L133.789,138.202 L147.537,138.202 L147.537,130.529 L133.789,130.529 L133.789,121.256 L152.012,121.256 L152.012,121.256 Z M79.114,113.583 L79.114,158.346 L93.183,158.346 C100.28,158.346 104.949,156.811 108.593,154.126 C114.094,150.032 117.482,143.382 117.482,135.963 C117.482,128.546 114.094,121.896 108.593,117.802 C104.949,115.116 100.28,113.583 93.183,113.583 L79.114,113.583 L79.114,113.583 Z M108.849,135.963 C108.849,139.672 107.634,143.125 105.588,145.684 C103.094,148.817 99.45,150.673 94.141,150.673 L87.747,150.673 L87.747,121.256 L94.141,121.256 C99.45,121.256 103.094,123.11 105.588,126.244 C107.634,128.803 108.849,132.256 108.849,135.963 L108.849,135.963 Z M28.917,158.346 L28.917,138.202 C30.068,136.604 32.945,134.366 36.462,134.366 C38.381,134.366 40.044,135.004 41.13,136.094 C42.282,137.242 42.985,138.842 42.985,141.91 L42.985,158.346 L51.297,158.346 L51.297,142.551 C51.297,137.242 50.148,134.111 48.101,131.679 C45.544,128.609 41.642,126.691 37.358,126.691 C33.905,126.691 30.962,127.906 28.597,129.826 L28.597,127.332 L20.604,127.332 L20.604,158.346 L28.917,158.346 L28.917,158.346 Z M0.78,116.334 C0.78,119.338 3.21,121.64 6.216,121.64 C9.221,121.64 11.651,119.338 11.651,116.334 C11.651,113.327 9.221,111.025 6.216,111.025 C3.21,111.025 0.78,113.327 0.78,116.334 L0.78,116.334 Z M2.06,158.346 L10.373,158.346 L10.373,127.332 L2.06,127.332 L2.06,158.346 Z"></path>
    <path d="M128.671,90.19 C128.096,90.318 126.498,90.509 125.283,90.509 C123.234,90.509 121.892,89.935 121.061,88.976 C120.358,88.143 120.039,86.993 120.039,85.073 L120.039,73.244 L130.27,73.244 L130.27,66.21 L120.039,66.21 L120.039,57.577 L111.725,57.577 L111.725,66.21 L103.094,66.21 L103.094,73.244 L111.725,73.244 L111.725,84.114 C111.725,88.526 112.429,91.277 114.026,93.388 C116.138,96.201 119.782,97.863 124.771,97.863 C126.369,97.863 128.864,97.606 129.951,97.226 L128.671,90.19 L128.671,90.19 Z M74.763,93.707 C78.41,96.393 82.951,97.863 87.234,97.863 C93.756,97.863 99.576,94.219 99.576,88.273 C99.576,77.528 84.548,79.127 84.548,75.098 C84.548,73.501 86.466,72.606 88.769,72.606 C91.006,72.606 93.118,73.565 94.716,74.715 L98.617,68.704 C96.571,67.106 92.157,65.572 88.129,65.572 C81.992,65.572 76.235,69.28 76.235,75.227 C76.235,85.201 91.263,83.54 91.263,88.208 C91.263,89.741 89.536,90.828 87.297,90.828 C84.165,90.828 80.904,89.679 78.792,87.761 L74.763,93.707 L74.763,93.707 Z M48.547,77.72 C48.932,74.907 51.744,72.286 55.199,72.286 C58.587,72.286 61.082,74.971 61.337,77.72 L48.547,77.72 L48.547,77.72 Z M64.343,87.568 C62.872,89.167 60.058,91.149 56.541,91.149 C52.128,91.149 48.611,88.143 48.164,83.796 L69.649,83.796 C69.779,83.093 69.842,82.26 69.842,81.429 C69.842,72.796 63.767,65.572 55.199,65.572 C45.99,65.572 40.106,73.117 40.106,81.75 C40.106,91.468 47.078,97.863 56.349,97.863 C61.145,97.863 66.069,95.883 69.074,92.301 L64.343,87.568 L64.343,87.568 Z M10.053,97.226 L10.053,94.73 C12.611,96.903 15.552,97.863 18.685,97.863 C23.29,97.863 27.638,95.817 30.387,92.62 C32.818,89.806 34.352,85.969 34.352,81.75 C34.352,72.606 27.573,65.572 19.134,65.572 C15.744,65.572 12.802,66.53 10.373,68.448 L10.373,51.822 L2.06,51.822 L2.06,97.226 L10.053,97.226 L10.053,97.226 Z M10.373,77.079 C12.099,74.78 14.848,73.244 18.046,73.244 C22.906,73.244 26.04,77.273 26.04,81.75 C26.04,86.609 22.522,90.19 17.854,90.19 C14.721,90.19 11.971,88.654 10.373,86.353 L10.373,77.079 L10.373,77.079 Z"></path>
</svg>
