<?xml version="1.0" encoding="UTF-8" standalone="no"?>
<svg width="51px" height="119px" viewBox="0 0 51 119" version="1.1" xmlns="http://www.w3.org/2000/svg" xmlns:xlink="http://www.w3.org/1999/xlink" xmlns:sketch="http://www.bohemiancoding.com/sketch/ns">
    <!-- Generator: Sketch 3.3.2 (12043) - http://www.bohemiancoding.com/sketch -->
    <title>Imported Layers</title>
    <desc>Created with Sketch.</desc>
    <defs></defs>
    <g id="Page-1" stroke="none" stroke-width="1" fill="none" fill-rule="evenodd" sketch:type="MSPage">
        <path d="M44.648,0 C44.362,1.571 43.717,3.013 42.919,4.383 C41.41,6.976 39.344,8.956 36.458,9.936 C35.632,10.218 34.738,10.305 33.863,10.433 C33.506,10.488 33.204,10.567 32.911,10.81 C30.371,12.904 28.198,15.349 26.13,17.9 C26.103,17.929 26.088,17.968 26.024,18.087 C26.391,18.041 26.709,18.012 27.015,17.96 C27.089,17.947 27.174,17.841 27.207,17.761 C28.145,15.308 30.138,14.282 32.544,13.848 C34.122,13.567 35.696,13.81 37.257,14.051 C38.408,14.238 39.564,14.437 40.758,14.635 C40.687,14.753 40.642,14.844 40.572,14.923 C38.575,17.47 36.074,19.181 32.787,19.54 C30.914,19.739 29.119,19.498 27.487,18.487 C27.346,18.403 27.138,18.391 26.973,18.403 C26.591,18.433 26.207,18.487 25.835,18.564 C25.688,18.597 25.527,18.689 25.44,18.801 C23.252,21.642 21.346,24.666 19.673,27.832 C19.496,28.169 19.326,28.514 19.088,28.969 C19.529,28.826 19.878,28.736 20.206,28.599 C20.281,28.571 20.328,28.415 20.346,28.318 C20.677,26.178 21.94,24.74 23.809,23.795 C25.031,23.18 26.349,22.851 27.7,22.728 C29.654,22.551 31.616,22.431 33.634,22.286 C33.587,22.431 33.581,22.528 33.532,22.603 C31.92,25.27 29.867,27.467 26.916,28.679 C24.881,29.52 22.808,29.799 20.681,29.004 C20.571,28.969 20.428,28.964 20.318,28.998 C19.852,29.152 19.382,29.322 18.922,29.501 C18.842,29.529 18.77,29.626 18.731,29.706 C16.631,33.984 15.003,38.44 13.792,43.052 C13.785,43.087 13.797,43.133 13.8,43.175 C13.824,43.17 13.839,43.17 13.852,43.17 C14.447,42.903 14.796,42.592 14.796,41.793 C14.787,38.757 16.467,36.701 18.917,35.146 C20.515,34.134 22.271,33.454 24.021,32.784 C25.044,32.387 26.061,31.998 27.172,31.571 C26.937,32.26 26.749,32.908 26.499,33.544 C25.315,36.579 23.563,39.195 20.857,41.091 C19.164,42.282 17.331,43.002 15.23,42.903 C15.09,42.892 14.919,43.002 14.787,43.095 C14.422,43.363 14.059,43.641 13.71,43.926 C13.602,44.014 13.515,44.17 13.492,44.308 C13.04,46.65 12.475,48.988 12.179,51.355 C11.833,54.062 11.724,56.799 11.509,59.524 C11.509,59.55 11.524,59.572 11.531,59.6 C12.174,59.23 12.351,58.812 12.243,58.071 C11.843,55.363 12.584,52.939 14.12,50.726 C15.079,49.346 16.257,48.173 17.564,47.123 C19.072,45.907 20.589,44.712 22.185,43.449 C22.14,44.112 22.129,44.712 22.061,45.308 C21.702,48.527 20.764,51.544 18.868,54.216 C17.55,56.065 16.037,57.7 13.852,58.515 C13.075,58.799 12.511,59.21 12.032,59.906 C11.651,60.454 11.487,60.95 11.492,61.602 C11.531,66.291 12.043,70.925 13.015,75.507 C13.04,75.616 13.075,75.726 13.139,75.912 C13.328,75.446 13.509,75.046 13.663,74.639 C13.697,74.566 13.656,74.438 13.604,74.378 C12.979,73.571 12.813,72.62 12.749,71.648 C12.612,69.448 13.234,67.431 14.254,65.505 C15.403,63.329 16.931,61.411 18.429,59.467 C19.078,58.626 19.715,57.767 20.428,56.821 C20.515,57.504 20.623,58.097 20.677,58.688 C20.98,62.205 20.532,65.591 19.034,68.813 C17.968,71.12 16.567,73.148 14.398,74.55 C14.267,74.633 14.191,74.807 14.12,74.953 C13.869,75.483 13.629,76.011 13.403,76.548 C13.348,76.68 13.323,76.848 13.358,76.989 C14.585,82.013 16.346,86.834 18.783,91.408 C18.812,91.458 18.848,91.496 18.95,91.622 C19.001,91.153 19.052,90.779 19.078,90.404 C19.085,90.337 19.039,90.237 18.986,90.189 C18.134,89.472 17.764,88.498 17.44,87.483 C16.673,85.123 16.871,82.769 17.49,80.412 C18.147,77.886 19.164,75.49 20.124,73.068 C20.363,72.477 20.586,71.877 20.844,71.214 C20.925,71.363 20.998,71.468 21.056,71.584 C23.363,76.763 23.639,82.007 21.46,87.293 C21.077,88.218 20.446,89.036 19.954,89.91 C19.805,90.17 19.694,90.464 19.612,90.761 C19.534,91.031 19.573,91.341 19.474,91.599 C19.252,92.183 19.444,92.644 19.741,93.142 C21.908,96.854 24.447,100.275 27.462,103.339 C27.542,103.429 27.641,103.508 27.816,103.676 C27.781,103.2 27.754,102.825 27.708,102.451 C27.7,102.374 27.616,102.279 27.542,102.246 C26.63,101.845 26.003,101.136 25.44,100.352 C24.184,98.642 23.733,96.696 23.649,94.617 C23.563,92.404 23.806,90.204 24.069,88.013 C24.239,86.585 24.424,85.168 24.615,83.669 C24.752,83.804 24.879,83.906 24.978,84.028 C27.356,86.786 28.813,89.963 29.262,93.589 C29.584,96.15 29.567,98.704 28.593,101.129 C28.206,102.114 28.346,103.076 28.323,104.056 C28.317,104.144 28.402,104.259 28.473,104.33 C31.841,107.555 35.606,110.172 39.854,112.102 C39.89,112.121 39.935,112.125 40.064,112.153 C39.964,111.777 39.881,111.451 39.797,111.129 C38.291,111.157 37.293,110.263 36.315,109.366 C34.836,108.013 34.076,106.235 33.637,104.356 C33.149,102.236 32.816,100.079 32.421,97.936 C32.266,97.1 32.145,96.263 31.984,95.308 C32.61,95.67 33.178,95.967 33.7,96.31 C37.482,98.835 39.602,102.416 40.246,106.868 C40.414,107.998 40.214,109.17 40.273,110.321 C40.306,111.002 40.499,111.676 40.638,112.354 C40.655,112.433 40.793,112.511 40.894,112.55 C43.774,113.756 46.739,114.719 49.832,115.196 C50.677,115.321 50.798,115.819 50.794,116.52 C50.149,116.412 49.516,116.317 48.874,116.199 C46.46,115.748 44.111,115.068 41.81,114.203 C41.563,114.109 41.241,114.209 40.957,114.218 C40.151,114.255 39.648,114.62 39.21,115.357 C38.154,117.106 36.416,117.934 34.479,118.37 C33.75,118.535 32.992,118.609 32.247,118.721 L29.851,118.721 C29.688,118.693 29.521,118.662 29.353,118.64 C27.403,118.416 25.505,117.979 23.726,117.143 C23.014,116.812 22.345,116.412 21.831,115.757 C23.331,114.444 24.957,113.359 26.79,112.6 C29.106,111.638 31.499,111.169 34.01,111.545 C35.899,111.822 37.608,112.595 39.225,113.563 C39.615,113.79 39.95,113.777 40.394,113.635 C40.244,113.549 40.148,113.493 40.046,113.449 C36.397,111.827 33.071,109.712 30.06,107.104 C29.442,106.571 28.829,106.169 27.996,106.173 C27.927,106.173 27.856,106.169 27.788,106.145 C27.535,106.075 27.367,106.17 27.201,106.363 C26.591,107.068 25.833,107.555 24.957,107.861 C23.466,108.383 21.952,108.325 20.443,108.034 C16.931,107.357 13.904,105.75 11.318,103.302 C10.882,102.881 10.549,102.342 10.089,101.765 C10.884,101.468 11.541,101.195 12.205,100.985 C15.429,99.983 18.65,99.916 21.846,101.1 C24.048,101.914 25.742,103.426 27.269,105.151 C27.581,105.516 27.641,105.528 28.187,105.477 C28.145,105.432 28.113,105.381 28.073,105.341 C24.844,102.228 22.104,98.727 19.766,94.904 C19.716,94.837 19.679,94.748 19.612,94.707 C19.164,94.426 18.713,94.171 18.275,93.876 C18.081,93.751 17.951,93.753 17.739,93.847 C17.301,94.045 16.847,94.251 16.379,94.336 C14.216,94.739 12.26,94.159 10.447,93.005 C9.005,92.083 7.797,90.885 6.694,89.602 C5.396,88.111 4.242,86.521 3.565,84.639 C3.407,84.198 3.315,83.73 3.193,83.262 C7.334,82.931 10.825,84.239 13.824,86.912 C15.673,88.558 16.972,90.615 18.045,92.819 C18.233,93.209 18.52,93.407 18.95,93.582 C18.903,93.467 18.882,93.407 18.864,93.367 C16.314,88.879 14.354,84.148 12.894,79.198 C12.873,79.119 12.844,79.033 12.793,78.964 C12.497,78.549 12.174,78.151 11.891,77.729 C11.721,77.473 11.561,77.393 11.237,77.441 C10.734,77.505 10.205,77.516 9.706,77.435 C7.997,77.144 6.696,76.146 5.549,74.912 C3.328,72.52 1.907,69.661 0.784,66.639 C0.436,65.697 0.259,64.695 0,63.72 L0,62.441 C0.343,62.535 0.695,62.602 1.021,62.727 C4.147,63.932 6.586,66.019 8.603,68.649 C10.403,71.003 11.328,73.718 11.898,76.582 C11.96,76.897 12.148,77.178 12.274,77.478 C12.317,77.461 12.354,77.441 12.392,77.43 C12.387,77.364 12.387,77.293 12.368,77.227 C11.379,73.169 10.884,69.048 10.761,64.877 C10.744,64.309 10.793,63.72 10.653,63.184 C10.519,62.625 10.209,62.109 9.944,61.591 C9.889,61.471 9.715,61.349 9.583,61.327 C8.798,61.198 8.08,60.901 7.432,60.436 C6.55,59.788 5.861,58.951 5.299,58.016 C4.231,56.213 3.55,54.256 3.045,52.23 C2.477,49.943 2.105,47.623 2.16,45.259 C2.181,44.553 2.267,43.854 2.331,43.071 C2.546,43.209 2.663,43.279 2.772,43.361 C6.047,45.733 8.219,48.904 9.495,52.707 C10.358,55.28 10.456,57.934 10.28,60.609 C10.249,61.058 10.38,61.417 10.708,61.748 C10.769,60.952 10.744,60.16 10.769,59.371 C10.857,56.32 11.113,53.285 11.509,50.255 C11.625,49.36 12.036,48.475 11.633,47.528 C11.461,47.136 11.457,46.668 11.331,46.242 C11.283,46.082 11.131,45.929 10.996,45.819 C10.557,45.483 10.05,45.22 9.655,44.842 C8.342,43.585 7.765,41.958 7.451,40.216 C6.949,37.551 6.925,34.863 7.122,32.172 C7.246,30.458 7.547,28.784 8.13,27.166 C8.192,26.99 8.277,26.823 8.369,26.595 C8.603,26.877 8.775,27.086 8.945,27.299 C11.694,30.653 12.992,34.507 12.903,38.836 C12.86,41.071 12.464,43.252 11.88,45.4 C11.746,45.883 11.954,46.286 12.054,46.805 C12.11,46.696 12.123,46.685 12.127,46.671 C12.973,42.443 14.216,38.336 15.851,34.35 C15.893,34.25 15.933,34.134 15.933,34.027 C15.943,33.461 15.963,32.889 15.94,32.325 C15.933,32.139 15.826,31.932 15.71,31.777 C15.388,31.384 14.992,31.042 14.705,30.62 C13.61,28.989 13.355,27.136 13.399,25.229 C13.446,23.014 13.824,20.844 14.379,18.704 C14.873,16.763 15.489,14.868 16.539,13.154 C16.682,12.912 16.853,12.695 17.036,12.432 C18.191,14.572 18.868,16.772 19.105,19.108 C19.534,23.392 18.88,27.457 16.743,31.233 C16.469,31.717 16.516,32.202 16.469,32.754 C16.543,32.681 16.58,32.655 16.594,32.622 C18.448,28.475 20.706,24.561 23.36,20.879 C23.418,20.796 23.47,20.699 23.477,20.612 C23.556,20.075 23.61,19.54 23.693,19.008 C23.729,18.764 23.684,18.601 23.515,18.403 C23.216,18.047 22.934,17.649 22.746,17.228 C22.072,15.692 22.033,14.073 22.274,12.442 C22.872,8.459 24.701,5.071 27.346,2.083 C27.773,1.591 28.292,1.175 28.794,0.699 C28.859,0.824 28.88,0.859 28.891,0.9 C28.931,1.065 28.974,1.232 29.006,1.4 C29.391,3.737 29.325,6.082 28.996,8.425 C28.465,12.184 27.089,15.56 24.452,18.352 C24.001,18.832 24.069,19.383 23.999,19.931 C24.124,19.834 24.212,19.725 24.297,19.611 C26.89,16.24 29.688,13.058 32.911,10.275 C33.005,10.196 33.062,10.028 33.05,9.914 C32.911,8.788 33.151,7.73 33.682,6.739 C34.668,4.905 36.155,3.565 37.999,2.673 C39.582,1.903 41.263,1.34 42.894,0.675 C43.431,0.461 43.947,0.225 44.478,0 L44.648,0" id="Imported-Layers" fill="#000000" sketch:type="MSShapeGroup"></path>
    </g>
</svg>