<?xml version="1.0" encoding="UTF-8" standalone="no"?>
<svg width="51px" height="119px" viewBox="0 0 51 119" version="1.1" xmlns="http://www.w3.org/2000/svg" xmlns:xlink="http://www.w3.org/1999/xlink" xmlns:sketch="http://www.bohemiancoding.com/sketch/ns">
    <!-- Generator: Sketch 3.3.2 (12043) - http://www.bohemiancoding.com/sketch -->
    <title>Imported Layers</title>
    <desc>Created with Sketch.</desc>
    <defs></defs>
    <g id="Page-1" stroke="none" stroke-width="1" fill="none" fill-rule="evenodd" sketch:type="MSPage">
        <path d="M6.31352621,0 C6.46752621,0.084 6.61852621,0.192 6.77952621,0.258 C8.57852621,0.945 10.3975262,1.571 12.1595262,2.333 C14.0315262,3.149 15.5995262,4.392 16.7445262,6.117 C17.5065262,7.265 17.9045262,8.518 17.7455262,9.918 C17.7355262,10.028 17.7925262,10.199 17.8795262,10.275 C21.1075262,13.062 23.9055262,16.24 26.5005262,19.62 C26.5905262,19.73 26.6715262,19.837 26.7995262,19.931 C26.7355262,19.36 26.7725262,18.809 26.3115262,18.314 C23.8185262,15.666 22.4475262,12.484 21.8835262,8.922 C21.4735262,6.412 21.3715262,3.903 21.7895262,1.385 C21.8235262,1.184 21.8835262,0.982 21.9495262,0.659 C22.4905262,1.164 22.9995262,1.575 23.4275262,2.059 C26.0785262,5.052 27.9205262,8.455 28.5215262,12.455 C28.7435262,13.922 28.7295262,15.396 28.2035262,16.797 C27.9795262,17.397 27.5545262,17.915 27.2285262,18.476 C27.1585262,18.592 27.0855262,18.726 27.0975262,18.847 C27.1485262,19.452 27.2295262,20.058 27.3185262,20.66 C27.3245262,20.752 27.4035262,20.837 27.4605262,20.918 C30.1075262,24.592 32.3555262,28.493 34.1995262,32.636 C34.2125262,32.66 34.2355262,32.682 34.3545262,32.682 C34.2915262,32.277 34.3405262,31.809 34.1545262,31.474 C32.2885262,28.201 31.4885262,24.679 31.5635262,20.945 C31.6255262,17.962 32.2705262,15.13 33.7525262,12.45 C33.8925262,12.639 34.0255262,12.794 34.1415262,12.967 C35.1825262,14.611 35.8125262,16.42 36.3055262,18.284 C36.9595262,20.715 37.4085262,23.175 37.3975262,25.697 C37.3915262,27.269 37.1615262,28.809 36.3425262,30.176 C35.9965262,30.752 35.4975262,31.24 35.0865262,31.777 C34.9695262,31.932 34.8705262,32.139 34.8545262,32.325 C34.8355262,32.889 34.8545262,33.46 34.8705262,34.027 C34.8705262,34.125 34.8895262,34.225 34.9205262,34.312 C36.5795262,38.322 37.8255262,42.458 38.7115262,46.717 C38.8405262,46.286 39.0395262,45.88 38.9135262,45.4 C38.3295262,43.243 37.9305262,41.068 37.8885262,38.826 C37.8075262,34.5 39.0975262,30.648 41.8525262,27.293 C42.0265262,27.086 42.1935262,26.874 42.4275262,26.589 C42.5845262,26.993 42.7305262,27.338 42.8385262,27.691 C43.5135262,29.799 43.7185262,31.982 43.7735262,34.182 C43.8215262,36.597 43.7155262,39.002 43.0835262,41.347 C42.6855262,42.833 42.0035262,44.164 40.7905262,45.166 C40.7055262,45.241 40.6195262,45.34 40.5205262,45.374 C39.4495262,45.715 39.4115262,46.656 39.1525262,47.534 C38.7955262,48.698 39.2905262,49.757 39.3625262,50.857 C39.5575262,53.713 39.8175262,56.562 40.0215262,59.416 C40.0705262,60.192 40.0305262,60.967 40.0855262,61.748 C40.4015262,61.417 40.5495262,61.058 40.5165262,60.6 C40.1195262,55.874 41.0885262,51.488 43.8705262,47.565 C45.0355262,45.923 46.4205262,44.502 48.0555262,43.329 C48.1555262,43.261 48.2635262,43.204 48.4465262,43.087 C48.5175262,43.773 48.6295262,44.393 48.6295262,45.011 C48.6555262,49.365 47.7755262,53.523 45.8325262,57.433 C45.3255262,58.429 44.6645262,59.322 43.8185262,60.067 C43.0635262,60.728 42.2035262,61.172 41.2025262,61.327 C41.0765262,61.346 40.9125262,61.452 40.8555262,61.56 C40.5945262,62.094 40.2795262,62.622 40.1375262,63.189 C39.9965262,63.719 40.0485262,64.292 40.0305262,64.847 C39.9145262,69.045 39.4075262,73.196 38.4105262,77.276 C38.4035262,77.318 38.4035262,77.361 38.4035262,77.404 C38.4425262,77.418 38.4765262,77.435 38.5125262,77.451 C38.6435262,77.17 38.8265262,76.897 38.8925262,76.608 C39.3565262,74.335 39.9785262,72.113 41.2105262,70.125 C43.2825262,66.772 46.0485262,64.211 49.7515262,62.739 C50.0605262,62.612 50.4005262,62.535 50.8555262,62.392 C50.7685262,63.167 50.7755262,63.883 50.6025262,64.552 C49.5515262,68.63 47.7605262,72.328 44.7885262,75.371 C43.7735262,76.407 42.5845262,77.193 41.1175262,77.423 C40.5835262,77.505 40.0175262,77.458 39.4675262,77.423 C39.2415262,77.413 39.1065262,77.432 38.9695262,77.628 C38.6585262,78.083 38.3195262,78.52 37.9995262,78.969 C37.9375262,79.045 37.9135262,79.155 37.8885262,79.25 C36.4375262,84.153 34.4925262,88.85 31.9735262,93.301 C31.9305262,93.371 31.8955262,93.445 31.8385262,93.589 C32.2625262,93.407 32.5455262,93.227 32.7345262,92.85 C33.8035262,90.659 35.0865262,88.614 36.9165262,86.962 C39.9065262,84.259 43.4005262,82.971 47.4435262,83.232 C47.4675262,83.235 47.5005262,83.244 47.6155262,83.291 C47.4485262,83.835 47.3295262,84.397 47.1135262,84.938 C46.3085262,86.95 45.0135262,88.643 43.5475262,90.217 C42.3095262,91.557 40.9745262,92.802 39.2885262,93.597 C37.6255262,94.381 35.8895262,94.731 34.0655262,94.263 C33.7785262,94.189 33.4775262,94.1 33.2315262,93.942 C32.9145262,93.728 32.6635262,93.751 32.3565262,93.978 C31.9965262,94.245 31.5855262,94.449 31.2055262,94.692 C31.1305262,94.746 31.0745262,94.841 31.0225262,94.919 C28.6975262,98.708 25.9935262,102.179 22.7965262,105.266 C22.7305262,105.328 22.6705262,105.409 22.5785262,105.516 C23.0145262,105.538 23.3045262,105.432 23.5785262,105.116 C25.1855262,103.261 27.0205262,101.706 29.4075262,100.933 C32.8375262,99.83 36.2285262,100.062 39.5725262,101.334 C39.8525262,101.44 40.1235262,101.558 40.3935262,101.67 C40.4515262,101.692 40.4935262,101.73 40.6355262,101.823 C40.2565262,102.321 39.9215262,102.83 39.5125262,103.266 C38.2315262,104.646 36.6375262,105.592 34.9895262,106.449 C32.9465262,107.513 30.7695262,108.162 28.4595262,108.239 C26.5325262,108.301 24.8275262,107.77 23.5015262,106.288 C23.4135262,106.19 23.2325262,106.135 23.0995262,106.145 C22.6775262,106.178 22.2525262,106.242 21.8325262,106.312 C21.7155262,106.334 21.5855262,106.388 21.4955262,106.469 C18.2135262,109.381 14.5835262,111.77 10.5615262,113.535 C10.5255262,113.549 10.4945262,113.592 10.4625262,113.615 C11.0305262,113.839 11.0665262,113.839 11.5535262,113.549 C13.0495262,112.696 14.6085262,111.952 16.3155262,111.622 C18.9125262,111.118 21.3915262,111.554 23.8085262,112.52 C25.7185262,113.274 27.4115262,114.395 28.9605262,115.757 C28.4385262,116.422 27.7555262,116.828 27.0305262,117.162 C25.2405262,117.991 23.3485262,118.425 21.4065262,118.644 C21.2455262,118.662 21.0995262,118.693 20.9435262,118.721 L18.5455262,118.721 C17.7455262,118.592 16.9315262,118.52 16.1525262,118.328 C13.9675262,117.802 12.1715262,116.727 11.1225262,114.633 C11.0615262,114.512 10.8735262,114.427 10.7185262,114.384 C10.2935262,114.282 9.86052621,114.193 9.41852621,114.134 C9.25052621,114.109 9.06052621,114.158 8.89252621,114.224 C6.10552621,115.302 3.23352621,116.033 0.276526214,116.478 C0.195526214,116.488 0.115526214,116.488 0.0305262136,116.497 C-0.0994737864,115.755 0.186526214,115.336 0.873526214,115.222 C3.99252621,114.713 6.98852621,113.775 9.89752621,112.545 C10.0405262,112.485 10.1805262,112.301 10.2175262,112.153 C10.4755262,111.279 10.5615262,110.401 10.4825262,109.469 C10.0225262,103.94 13.3705262,98.052 18.3325262,95.573 C18.4725262,95.502 18.6185262,95.453 18.7875262,95.375 C18.6185262,96.459 18.4485262,97.492 18.2855262,98.529 C17.9425262,100.766 17.6095262,102.999 16.9315262,105.175 C16.2505262,107.344 15.1005262,109.146 13.1945262,110.418 C12.5425262,110.854 11.8615262,111.208 11.0085262,111.105 C10.9135262,111.442 10.8235262,111.77 10.7005262,112.217 C11.4485262,111.863 12.0835262,111.571 12.7045262,111.251 C16.2165262,109.426 19.4015262,107.13 22.2505262,104.387 C22.3775262,104.267 22.4575262,104.059 22.4715262,103.886 C22.5175262,103.374 22.5205262,102.858 22.5325262,102.347 C22.5375262,102.206 22.5285262,102.058 22.4755262,101.936 C21.2405262,99.059 21.1465262,96.082 21.6115262,93.039 C22.1355262,89.647 23.5605262,86.67 25.7845262,84.064 C25.8685262,83.958 25.9545262,83.872 26.0485262,83.781 C26.0755262,83.757 26.1215262,83.737 26.1965262,83.696 C26.2635262,84.276 26.3325262,84.835 26.3935262,85.386 C26.6465262,87.842 26.9845262,90.284 27.1345262,92.739 C27.2665262,94.961 27.1585262,97.197 26.0445262,99.23 C25.3665262,100.471 24.5865262,101.61 23.2505262,102.248 C23.1635262,102.293 23.0835262,102.436 23.0735262,102.537 C23.0195262,102.881 23.0025262,103.217 22.9705262,103.697 C23.2825262,103.389 23.5085262,103.175 23.7275262,102.95 C26.6545262,99.878 29.1435262,96.493 31.2475262,92.811 C31.4055262,92.527 31.4245262,92.267 31.3995262,91.936 C31.3015262,90.761 30.7915262,89.799 30.1455262,88.838 C28.9145262,87.008 28.3725262,84.905 28.0585262,82.746 C27.5045262,78.918 28.1025262,75.262 29.6685262,71.744 C29.7395262,71.577 29.8345262,71.416 29.9375262,71.214 C30.4195262,72.427 30.8775262,73.579 31.3375262,74.735 C32.2185262,76.954 33.0595262,79.188 33.5665262,81.538 C34.0915262,83.972 33.9365262,86.33 32.9245262,88.599 C32.6755262,89.152 32.2235262,89.624 31.8695262,90.138 C31.8115262,90.221 31.7155262,90.323 31.7225262,90.408 C31.7435262,90.785 31.7885262,91.156 31.8355262,91.53 C31.8715262,91.539 31.9125262,91.549 31.9485262,91.554 C32.3715262,90.701 32.8085262,89.867 33.2165262,89.012 C35.0415262,85.168 36.4245262,81.163 37.4235262,77.029 C37.4635262,76.863 37.3975262,76.657 37.3445262,76.48 C37.3015262,76.329 37.1725262,76.207 37.1355262,76.06 C36.8695262,75.01 36.1545262,74.36 35.3195262,73.715 C33.5995262,72.396 32.5455262,70.564 31.6765262,68.623 C30.0005262,64.901 29.6815262,61.031 30.3495262,57.046 C30.3585262,57.004 30.3705262,56.965 30.3885262,56.914 C30.4285262,56.94 30.4795262,56.944 30.4965262,56.97 C31.9965262,58.968 33.5085262,60.948 34.9745262,62.964 C36.0495262,64.445 36.9445262,66.038 37.5285262,67.779 C38.0705262,69.429 38.2645262,71.125 37.8575262,72.831 C37.7395262,73.354 37.4265262,73.834 37.2095262,74.344 C37.1615262,74.448 37.1115262,74.584 37.1475262,74.684 C37.2905262,75.067 37.4595262,75.445 37.7065262,75.824 C37.8495262,75.147 37.9995262,74.474 38.1265262,73.786 C38.8645262,69.833 39.2505262,65.84 39.3095262,61.813 C39.3195262,61.057 39.2005262,60.464 38.7115262,59.835 C38.2335262,59.23 37.7555262,58.816 37.0285262,58.546 C34.8015262,57.737 33.2565262,56.097 31.9275262,54.216 C30.0195262,51.522 29.0665262,48.481 28.7265262,45.226 C28.6705262,44.667 28.6525262,44.092 28.5975262,43.409 C28.8605262,43.633 29.0375262,43.783 29.2105262,43.926 C30.7835262,45.188 32.3775262,46.41 33.9055262,47.716 C35.6275262,49.176 37.0785262,50.866 37.9245262,53.004 C38.6215262,54.776 38.8945262,56.596 38.4695262,58.487 C38.4485262,58.606 38.4675262,58.779 38.5385262,58.872 C38.7415262,59.148 38.9755262,59.388 39.2285262,59.689 C39.2285262,58.991 39.2525262,58.357 39.2185262,57.73 C39.0135262,53.275 38.4035262,48.885 37.3755262,44.553 C37.2935262,44.209 37.2125262,43.895 36.8305262,43.764 C36.7755262,43.752 36.7285262,43.714 36.6955262,43.668 C36.1325262,43.03 35.4195262,42.87 34.5775262,42.851 C32.6095262,42.809 30.9455262,41.887 29.4235262,40.709 C26.4465262,38.413 24.7405262,35.3 23.7035262,31.764 C23.6845262,31.709 23.6995262,31.65 23.6995262,31.514 C26.1215262,32.542 28.5345262,33.483 30.8705262,34.586 C32.5825262,35.393 34.0655262,36.56 35.0545262,38.252 C35.7795262,39.493 36.0725262,40.833 36.0265262,42.258 C36.0265262,42.423 36.1275262,42.633 36.2545262,42.746 C36.4635262,42.93 36.7285262,43.051 37.0655262,43.254 C36.7485262,42.138 36.4705262,41.114 36.1645262,40.095 C35.0865262,36.579 33.7505262,33.164 32.1445262,29.851 C32.0305262,29.615 31.9115262,29.456 31.6205262,29.456 C31.5145262,29.456 31.3885262,29.412 31.2985262,29.353 C30.6505262,28.93 30.0105262,29.032 29.2945262,29.232 C27.0975262,29.851 25.0295262,29.293 23.0575262,28.307 C20.5065262,27.035 18.6835262,24.982 17.2405262,22.564 C17.2025262,22.507 17.1875262,22.441 17.1405262,22.312 C17.9535262,22.36 18.7125262,22.411 19.4695262,22.455 C21.2345262,22.545 22.9995262,22.595 24.7335262,23.008 C26.3005262,23.385 27.7585262,23.989 28.9145262,25.188 C29.7025262,26.02 30.2275262,26.983 30.4015262,28.11 C30.4695262,28.499 30.6225262,28.688 30.9845262,28.755 C31.1905262,28.794 31.3885262,28.871 31.6935262,28.964 C31.4685262,28.51 31.2875262,28.144 31.0995262,27.795 C29.4325262,24.654 27.5435262,21.657 25.3955262,18.825 C25.2355262,18.622 25.0815262,18.522 24.8275262,18.555 C24.7015262,18.567 24.5605262,18.574 24.4485262,18.53 C23.8035262,18.266 23.2875262,18.509 22.7015262,18.799 C20.4045262,19.921 18.0305262,19.812 15.6765262,19.011 C13.4155262,18.237 11.6385262,16.772 10.1895262,14.894 C10.1415262,14.836 10.1045262,14.774 10.0725262,14.713 C10.0595262,14.7 10.0675262,14.686 10.0675262,14.634 C10.8825262,14.496 11.7055262,14.342 12.5295262,14.231 C13.8235262,14.047 15.1215262,13.822 16.4215262,13.755 C18.6185262,13.649 20.6595262,14.169 22.2735262,15.749 C22.7775262,16.24 23.1435262,16.9 23.4775262,17.539 C23.6445262,17.864 23.8185262,18.012 24.1565262,18.034 C24.3355262,18.041 24.5185262,18.06 24.7635262,18.079 C24.6855262,17.955 24.6375262,17.869 24.5825262,17.799 C22.7905262,15.553 20.8525262,13.45 18.7365262,11.512 C18.3805262,11.192 17.9945262,10.887 17.6095262,10.6 C17.4985262,10.515 17.3275262,10.47 17.1765262,10.467 C13.8005262,10.334 11.1905262,8.723 9.10452621,6.175 C7.69552621,4.452 6.75752621,2.478 6.19452621,0.33 C6.16352621,0.222 6.15952621,0.11 6.14152621,0 L6.31352621,0" id="Imported-Layers" fill="#000000" sketch:type="MSShapeGroup"></path>
    </g>
</svg>